<?xml version="1.0" standalone="no"?>
<!DOCTYPE svg PUBLIC "-//W3C//DTD SVG 20010904//EN"
 "http://www.w3.org/TR/2001/REC-SVG-20010904/DTD/svg10.dtd">
<svg version="1.0" xmlns="http://www.w3.org/2000/svg"
 width="1060.000000pt" height="1060.000000pt" viewBox="0 0 1060.000000 1060.000000"
 preserveAspectRatio="xMidYMid meet">
<metadata>
Created by potrace 1.14, written by Peter Selinger 2001-2017
</metadata>
<g transform="translate(0.000000,1060.000000) scale(0.100000,-0.100000)"
fill="#000000" stroke="none">
<path d="M5038 10595 c-2 -1 -50 -5 -108 -9 -58 -3 -118 -8 -135 -10 -16 -2
-61 -7 -100 -11 -38 -3 -81 -8 -95 -10 -14 -2 -45 -7 -70 -10 -38 -5 -120 -19
-230 -39 -57 -10 -216 -45 -230 -50 -8 -3 -26 -8 -40 -10 -14 -3 -43 -10 -65
-16 -22 -6 -49 -13 -60 -15 -11 -3 -65 -18 -120 -35 -55 -17 -107 -33 -115
-35 -8 -2 -67 -22 -130 -45 -63 -24 -132 -49 -154 -57 -44 -16 -141 -56 -203
-84 -23 -10 -45 -19 -48 -19 -12 0 -351 -173 -455 -232 -115 -66 -122 -70
-295 -184 -66 -43 -124 -81 -129 -83 -5 -2 -16 -9 -25 -17 -9 -7 -79 -61 -156
-120 -77 -58 -158 -123 -181 -143 -22 -20 -69 -61 -105 -91 -90 -77 -361 -348
-450 -450 -41 -47 -77 -87 -80 -90 -17 -16 -148 -182 -221 -280 -487 -661
-794 -1372 -953 -2200 -3 -13 -7 -42 -10 -65 -3 -22 -8 -47 -10 -55 -2 -8 -7
-39 -10 -69 -4 -30 -8 -61 -10 -70 -2 -9 -6 -44 -10 -76 -3 -33 -8 -73 -10
-90 -26 -205 -26 -823 0 -1050 2 -16 7 -57 11 -90 3 -33 8 -69 10 -79 2 -11 6
-41 9 -67 5 -45 48 -287 60 -339 3 -14 10 -46 15 -73 18 -89 92 -352 141 -501
176 -528 431 -1019 767 -1476 70 -94 200 -259 222 -280 3 -3 38 -43 79 -90
107 -122 368 -379 496 -489 61 -51 122 -104 136 -116 14 -12 70 -55 125 -96
54 -41 101 -76 104 -79 11 -12 221 -151 320 -212 614 -377 1299 -628 1984
-728 302 -43 440 -53 761 -54 256 -1 361 3 550 19 143 12 277 31 485 69 65 12
229 48 265 58 22 6 45 12 50 14 227 51 611 186 875 306 177 81 451 227 570
303 335 214 577 394 785 584 97 89 352 347 416 420 35 41 71 82 81 92 67 70
280 356 393 528 272 413 524 955 645 1386 34 121 44 159 67 250 13 55 26 108
28 118 2 10 6 26 9 35 3 9 8 37 11 62 4 24 8 47 10 50 2 3 6 23 9 45 4 22 13
78 21 125 8 47 17 108 19 135 3 28 8 68 11 90 24 200 30 319 29 615 0 245 -6
403 -19 509 -2 14 -6 51 -9 81 -4 30 -8 71 -11 90 -3 19 -7 53 -10 75 -10 74
-46 274 -70 385 -59 278 -200 713 -306 945 -96 213 -196 413 -258 520 -346
596 -732 1051 -1282 1510 -51 43 -297 224 -369 272 -103 69 -270 173 -276 173
-3 0 -18 8 -32 18 -50 35 -367 199 -472 245 -19 8 -55 24 -80 34 -150 66 -385
153 -545 202 -206 63 -567 146 -720 165 -27 4 -57 9 -65 11 -16 4 -35 7 -210
25 -58 6 -127 13 -155 16 -51 6 -661 14 -667 9z"/>
</g>
</svg>
